<?xml version="1.0" encoding="UTF-8"?>
<svg xmlns="http://www.w3.org/2000/svg" xmlns:xlink="http://www.w3.org/1999/xlink" width="243px" height="35px" viewBox="0 0 242 35" version="1.1">
<g id="surface1">
<path style=" stroke:none;fill-rule:nonzero;fill:rgb(0%,0%,0%);fill-opacity:1;" d="M 166.71875 5.472656 L 160.203125 5.472656 C 159.304688 5.476562 158.574219 6.207031 158.574219 7.105469 L 158.574219 19.222656 L 153.554688 7.117188 C 153.140625 6.1875 152.253906 5.5625 151.246094 5.480469 L 138.761719 5.480469 C 137.863281 5.484375 137.132812 6.214844 137.128906 7.117188 L 137.128906 28.070312 C 137.128906 28.976562 137.859375 29.707031 138.761719 29.710938 L 145.296875 29.710938 C 146.195312 29.707031 146.925781 28.976562 146.929688 28.070312 L 146.929688 15.539062 L 152.113281 28.078125 C 152.53125 29.003906 153.414062 29.632812 154.421875 29.714844 L 166.722656 29.714844 C 167.625 29.710938 168.355469 28.980469 168.355469 28.074219 L 168.355469 7.113281 C 168.355469 6.207031 167.621094 5.472656 166.71875 5.472656 Z M 166.71875 5.472656 "/>
<path style=" stroke:none;fill-rule:nonzero;fill:rgb(0%,0%,0%);fill-opacity:1;" d="M 240.753906 5.480469 L 235.199219 5.480469 C 234.265625 5.535156 233.480469 6.199219 233.273438 7.117188 L 230.695312 21.738281 L 227.773438 7.117188 C 227.5625 6.191406 226.761719 5.523438 225.816406 5.480469 L 216.933594 5.480469 C 215.992188 5.523438 215.1875 6.191406 214.980469 7.117188 L 212.066406 21.742188 L 209.496094 7.121094 C 209.285156 6.195312 208.484375 5.523438 207.535156 5.484375 L 201.984375 5.484375 C 201.570312 5.46875 201.175781 5.652344 200.921875 5.972656 C 200.664062 6.296875 200.574219 6.71875 200.675781 7.121094 L 204.859375 28.070312 C 205.070312 29 205.871094 29.667969 206.820312 29.710938 L 217.648438 29.710938 C 218.597656 29.667969 219.398438 28.996094 219.609375 28.070312 L 221.371094 18.09375 L 223.128906 28.070312 C 223.335938 29 224.140625 29.671875 225.085938 29.710938 L 235.921875 29.710938 C 236.867188 29.667969 237.667969 29 237.878906 28.074219 L 242.058594 7.121094 C 242.164062 6.71875 242.074219 6.292969 241.820312 5.96875 C 241.5625 5.648438 241.167969 5.464844 240.753906 5.480469 Z M 240.753906 5.480469 "/>
<path style=" stroke:none;fill-rule:nonzero;fill:rgb(0%,0%,0%);fill-opacity:1;" d="M 134.488281 5.507812 L 127.597656 5.507812 C 126.695312 5.507812 125.503906 6.246094 124.945312 7.144531 L 119.925781 15.246094 L 114.882812 7.160156 C 114.324219 6.261719 113.128906 5.523438 112.234375 5.523438 L 105.382812 5.523438 C 104.484375 5.523438 104.191406 6.261719 104.769531 7.160156 L 115.019531 23.652344 L 115.019531 28.039062 C 115.023438 28.941406 115.753906 29.671875 116.652344 29.675781 L 123.507812 29.675781 C 124.40625 29.671875 125.136719 28.941406 125.136719 28.039062 L 125.136719 23.640625 L 135.117188 7.160156 C 135.679688 6.246094 135.402344 5.507812 134.488281 5.507812 Z M 134.488281 5.507812 "/>
<path style=" stroke:none;fill-rule:nonzero;fill:rgb(0%,0%,0%);fill-opacity:1;" d="M 76.996094 22.746094 L 68.523438 22.746094 C 67.65625 22.699219 66.976562 21.984375 66.972656 21.117188 L 66.972656 7.160156 C 66.972656 6.257812 66.246094 5.523438 65.34375 5.519531 L 58.488281 5.519531 C 57.585938 5.523438 56.855469 6.253906 56.855469 7.160156 L 56.855469 28.039062 C 56.859375 28.941406 57.585938 29.675781 58.488281 29.679688 L 76.996094 29.679688 C 77.894531 29.675781 78.625 28.941406 78.625 28.039062 L 78.625 24.386719 C 78.625 23.484375 77.898438 22.75 76.996094 22.746094 Z M 76.996094 22.746094 "/>
<path style=" stroke:none;fill-rule:nonzero;fill:rgb(0%,0%,0%);fill-opacity:1;" d="M 111.59375 28.035156 L 102.949219 7.160156 C 102.535156 6.234375 101.648438 5.605469 100.640625 5.523438 L 90.453125 5.523438 C 89.441406 5.605469 88.550781 6.230469 88.136719 7.160156 L 79.515625 28.042969 C 79.140625 28.941406 79.570312 29.679688 80.46875 29.679688 L 87.332031 29.679688 C 88.34375 29.601562 89.230469 28.972656 89.640625 28.039062 L 90.617188 25.652344 L 100.484375 25.652344 L 101.464844 28.039062 C 101.878906 28.964844 102.765625 29.59375 103.773438 29.675781 L 110.636719 29.699219 C 111.535156 29.675781 111.960938 28.9375 111.59375 28.035156 Z M 97.628906 18.753906 C 97.980469 19.632812 97.558594 20.34375 96.6875 20.371094 L 94.417969 20.371094 C 93.570312 20.371094 93.144531 19.667969 93.449219 18.820312 L 95.558594 13.710938 Z M 97.628906 18.753906 "/>
<path style=" stroke:none;fill-rule:nonzero;fill:rgb(0%,0%,0%);fill-opacity:1;" d="M 185.664062 4.828125 L 185.402344 4.828125 C 182.328125 4.828125 170.039062 5.535156 169.640625 17.523438 L 169.640625 17.59375 C 170.039062 29.582031 182.335938 30.292969 185.402344 30.289062 L 185.664062 30.289062 C 188.738281 30.289062 201.03125 29.582031 201.425781 17.597656 L 201.425781 17.523438 C 201.042969 5.535156 188.753906 4.824219 185.664062 4.828125 Z M 191.277344 17.554688 L 191.277344 17.613281 C 191.277344 19.007812 190.960938 24.578125 185.550781 24.769531 L 185.519531 24.769531 C 180.109375 24.589844 179.789062 19.019531 179.789062 17.613281 L 179.789062 17.5 C 179.789062 16.109375 180.109375 10.535156 185.519531 10.339844 L 185.550781 10.339844 C 190.960938 10.523438 191.28125 16.097656 191.277344 17.5 Z M 191.277344 17.554688 "/>
<path style=" stroke:none;fill-rule:nonzero;fill:rgb(0%,0%,0%);fill-opacity:1;" d="M 47.921875 5.480469 L 31.863281 5.480469 C 30.960938 5.484375 30.230469 6.214844 30.230469 7.121094 L 30.230469 28 C 30.230469 28.902344 30.960938 29.636719 31.863281 29.636719 L 38.714844 29.636719 C 39.617188 29.632812 40.34375 28.902344 40.347656 28 L 40.347656 23.464844 C 40.351562 22.5625 41.082031 21.832031 41.980469 21.832031 L 47.933594 21.832031 C 50.886719 21.898438 53.644531 20.355469 55.136719 17.800781 C 56.632812 15.246094 56.632812 12.082031 55.136719 9.527344 C 53.644531 6.972656 50.886719 5.429688 47.933594 5.496094 Z M 43.476562 16.742188 L 40.347656 16.742188 L 40.347656 13.683594 C 40.347656 13.683594 40.347656 13.648438 40.347656 13.628906 C 40.347656 11.917969 41.730469 10.523438 43.441406 10.519531 C 45.148438 10.515625 46.542969 11.898438 46.550781 13.613281 C 46.5625 15.324219 45.1875 16.726562 43.476562 16.742188 Z M 43.476562 16.742188 "/>
<path style=" stroke:none;fill-rule:nonzero;fill:rgb(0%,0%,0%);fill-opacity:1;" d="M 1.191406 20.027344 C 0.535156 19.371094 0.167969 18.480469 0.167969 17.554688 C 0.167969 16.628906 0.535156 15.742188 1.191406 15.085938 L 15.074219 1.144531 C 15.730469 0.488281 16.613281 0.121094 17.539062 0.121094 C 18.464844 0.121094 19.347656 0.488281 20.003906 1.144531 L 33.90625 15.085938 C 34.5625 15.742188 34.929688 16.628906 34.929688 17.554688 C 34.929688 18.480469 34.5625 19.371094 33.90625 20.027344 L 20.023438 33.945312 C 18.660156 35.308594 16.457031 35.308594 15.09375 33.945312 L 12.273438 31.113281 C 12.667969 31.167969 13.066406 31.195312 13.464844 31.199219 C 17.335938 31.199219 20.828125 28.863281 22.3125 25.273438 C 23.792969 21.6875 22.976562 17.558594 20.238281 14.8125 C 17.5 12.070312 13.382812 11.25 9.804688 12.734375 C 6.226562 14.222656 3.894531 17.722656 3.894531 21.605469 C 3.898438 22.003906 3.925781 22.402344 3.980469 22.796875 Z M 1.191406 20.027344 "/>
<path style=" stroke:none;fill-rule:nonzero;fill:rgb(70.19608%,10.588235%,20.392157%);fill-opacity:1;" d="M 23.011719 21.625 C 23.082031 18.148438 21.273438 14.910156 18.28125 13.152344 C 15.292969 11.390625 11.585938 11.390625 8.597656 13.152344 C 5.605469 14.910156 3.796875 18.148438 3.867188 21.625 C 3.871094 22.023438 3.898438 22.421875 3.953125 22.816406 L 12.25 31.140625 C 12.644531 31.195312 13.042969 31.222656 13.441406 31.226562 C 15.980469 31.226562 18.414062 30.214844 20.210938 28.414062 C 22.003906 26.613281 23.011719 24.171875 23.011719 21.625 Z M 23.011719 21.625 "/>
</g>
</svg>
